PathFileType  4	(X/Y/Z) C:\Users\antoi\Documents\MyRepositories\mobilecap\ResultsAnalysis
DataRate	CameraRate	NumFrames	NumMarkers	Units	OrigDataRate	OrigDataStartFrame	OrigNumFrames
100.0	100.0	4	51	mm	100.0	1225	1399
Frame#	Time	r_knee			r_shank_antsup			r_ankle			r_calc			r_5meta			r_toe			L_knee			L_shank_antsup			L_ankle			L_calc			L_5meta			L_toe			r_sh2			r_sh3			r_sh4			L_sh2			L_sh3			r_thigh1			r_thigh2			r_thigh3			r_thigh4			r_thigh5			L_thigh1			L_thigh2			L_thigh3			L_thigh4			r.ASIS			r.PSIS			L.ASIS			L.PSIS			C7			R_Shoulder			L_Shoulder			R_Sternum			L_Sternum			R_humerus			R_elbow_med			R_elbow_lat			R_forearm			R_wrist_radius			R_wrist_ulna			L_humerus			L_elbow_med			L_elbow_lat			L_forearm			L_wrist_radius			L_wrist_ulna			R_HJC			L_HJC			R_HJC_reg			L_HJC_reg			
		X1	Y1	Z1	X2	Y2	Z2	X3	Y3	Z3	X4	Y4	Z4	X5	Y5	Z5	X6	Y6	Z6	X7	Y7	Z7	X8	Y8	Z8	X9	Y9	Z9	X10	Y10	Z10	X11	Y11	Z11	X12	Y12	Z12	X13	Y13	Z13	X14	Y14	Z14	X15	Y15	Z15	X16	Y16	Z16	X17	Y17	Z17	X18	Y18	Z18	X19	Y19	Z19	X20	Y20	Z20	X21	Y21	Z21	X22	Y22	Z22	X23	Y23	Z23	X24	Y24	Z24	X25	Y25	Z25	X26	Y26	Z26	X27	Y27	Z27	X28	Y28	Z28	X29	Y29	Z29	X30	Y30	Z30	X31	Y31	Z31	X32	Y32	Z32	X33	Y33	Z33	X34	Y34	Z34	X35	Y35	Z35	X36	Y36	Z36	X37	Y37	Z37	X38	Y38	Z38	X39	Y39	Z39	X40	Y40	Z40	X41	Y41	Z41	X42	Y42	Z42	X43	Y43	Z43	X44	Y44	Z44	X45	Y45	Z45	X46	Y46	Z46	X47	Y47	Z47	X48	Y48	Z48	X49	Y49	Z49	X50	Y50	Z50	X51	Y51	Z51	

1225	12.24000000	-215.23035	505.16386	-431.87934	-189.64610	409.11517	-428.25864	-291.34653	92.17663	-421.28353	-354.52634	58.55404	-465.86321	-170.00507	42.69551	-384.61351	-138.30688	71.17557	-440.12337	-224.05312	510.66347	-782.29087	-195.18975	423.74306	-782.99310	-284.73379	96.37029	-798.30808	-353.77870	52.45517	-747.33320	-184.75987	40.41228	-849.50030	-133.16591	66.40697	-798.91991	-208.59923	297.14471	-422.63706	-255.52306	420.17109	-392.77138	-280.69962	309.14793	-383.97108	-277.70230	449.00314	-812.54185	-296.61172	329.48646	-826.95452	-157.08311	788.11436	-425.56388	-150.65875	677.02651	-433.40960	-203.06547	646.99518	-403.76347	-269.44626	776.02689	-412.50713	-254.53881	661.29950	-422.01320	-143.24793	759.88567	-785.02384	-130.97257	620.59291	-771.50967	-248.13975	750.07103	-815.72595	-238.67825	618.71634	-794.93899	-137.67151	982.85288	-477.48337	-342.60518	989.48648	-570.67335	-135.91758	987.06574	-738.65136	-338.97563	992.55928	-660.24198	-353.76059	1451.72629	-603.79110	-292.58211	1428.31940	-436.71025	-269.23604	1432.31070	-755.63904	-219.52456	1394.02198	-572.84267	-219.21503	1395.55993	-621.11893	-273.94777	1300.23598	-374.59089	-357.25108	1106.02241	-434.48742	-365.23554	1111.71766	-360.23156	-269.14336	1121.50391	-350.52413	-114.69070	1139.13444	-401.68357	-118.06954	1097.21156	-375.19442	-249.66032	1294.01854	-822.86885	-330.62257	1102.32720	-775.94473	-316.92400	1114.45162	-859.57587	-241.26723	1131.07105	-856.42287	-90.35220	1167.37486	-793.07320	-91.10431	1119.75852	-810.94863	-208.43502	886.00732	-511.01324	-203.12494	890.46514	-700.44887	-200.90573	893.61138	-520.17022	-193.92525	899.51632	-692.32436	
1226	12.25000000	-216.00111	505.30828	-431.36383	-190.35174	409.28382	-427.82255	-291.37339	92.01766	-421.22248	-354.58488	58.48634	-465.77649	-170.04740	42.63887	-384.59365	-138.37454	71.20330	-440.04520	-224.36218	510.63786	-782.02357	-195.39418	423.88193	-782.86557	-284.77277	96.35944	-798.27080	-353.80176	52.42585	-747.33008	-184.76839	40.42852	-849.49159	-133.16506	66.30917	-798.79758	-209.03667	297.29099	-422.46750	-256.20568	420.08803	-392.41832	-281.39637	308.63971	-383.94965	-277.95237	448.91577	-812.08209	-296.82679	329.53676	-826.61563	-157.17380	788.03010	-425.09187	-150.91275	676.80492	-433.21443	-203.53956	646.98419	-403.49171	-269.57977	776.36675	-412.31789	-254.94813	661.55095	-421.70192	-143.34787	759.75186	-784.97289	-131.21592	620.44236	-771.66352	-248.48891	749.91238	-814.80507	-239.03819	618.59005	-794.41162	-137.19085	982.49405	-476.72113	-342.35279	989.68908	-570.67812	-135.31335	986.68466	-738.44440	-338.57634	992.46396	-659.93235	-353.47075	1451.53353	-603.55493	-292.51779	1428.14604	-436.50237	-268.81588	1432.03613	-755.40702	-219.17094	1393.94289	-572.53949	-218.76855	1395.42071	-620.77242	-274.60331	1300.30725	-373.94949	-357.22606	1105.74670	-434.04943	-365.45656	1111.57366	-359.90385	-269.29832	1121.91959	-349.26343	-114.83646	1139.11440	-401.18445	-118.13425	1097.29488	-374.67833	-249.84074	1293.93969	-823.01031	-330.42670	1101.92347	-775.94392	-317.02917	1114.45404	-859.76183	-241.29801	1131.18281	-856.77229	-90.32198	1167.21595	-793.05647	-90.98899	1119.65944	-811.32078	-208.32126	885.83368	-510.61448	-202.79393	890.19292	-700.04632	-200.94170	893.59793	-519.33692	-193.64361	898.96218	-691.86418	
1227	12.26000000	-216.76981	505.46242	-430.77040	-191.02127	409.47108	-427.29426	-291.45175	91.89623	-421.07341	-354.62633	58.42222	-465.69511	-170.02860	42.66025	-384.47815	-138.47460	71.23179	-439.94661	-224.70308	510.58017	-781.76505	-195.65696	423.99254	-782.79001	-284.82266	96.32739	-798.22405	-353.82570	52.37896	-747.32538	-184.77583	40.43826	-849.47609	-133.19688	66.21105	-798.71269	-209.46576	297.39483	-422.29858	-257.01416	420.00172	-392.05645	-281.75089	308.44454	-384.02318	-278.30508	448.78557	-811.65525	-297.10653	329.43081	-826.15274	-157.29110	787.93841	-424.58878	-151.24752	676.61870	-432.75111	-204.25133	647.07397	-402.95997	-269.77734	776.62590	-412.13387	-255.33508	661.77822	-421.40193	-143.47406	759.59381	-784.94933	-131.62701	620.34671	-771.82891	-248.79812	749.80018	-814.04054	-239.44098	618.23454	-793.61055	-136.73074	982.19576	-476.40794	-341.70291	990.05922	-570.59279	-134.79426	986.28178	-738.10289	-338.16987	992.36519	-659.57304	-353.21244	1451.30380	-603.41913	-292.31315	1427.94647	-436.28190	-268.32298	1431.66426	-755.06679	-218.83388	1393.80521	-572.26916	-218.40352	1395.20540	-620.41040	-275.05339	1300.25727	-373.57745	-357.15043	1105.40366	-433.34939	-365.62744	1111.39831	-359.38722	-269.35660	1122.15524	-348.23336	-114.93466	1138.87793	-400.68922	-118.20329	1097.10960	-374.06684	-250.00257	1293.78543	-823.23773	-330.01326	1101.42048	-776.39991	-317.07815	1114.41851	-860.04620	-241.26925	1131.19000	-857.05574	-90.24242	1166.88108	-793.05364	-90.87312	1119.38063	-811.61700	-208.07962	885.74551	-510.24089	-202.50440	889.91899	-699.67541	-200.69856	894.05022	-518.39283	-193.84888	898.52131	-690.94257	
1228	12.27000000	-217.48094	505.45467	-430.27886	-191.62340	409.55532	-426.84145	-291.55869	91.90515	-420.85850	-354.66249	58.36291	-465.66163	-170.03545	42.68597	-384.36364	-138.56888	71.25930	-439.85668	-225.01501	510.51243	-781.51446	-195.97199	424.06655	-782.74463	-284.87218	96.29722	-798.16608	-353.84818	52.30660	-747.33127	-184.79001	40.44420	-849.47775	-133.23491	66.22790	-798.70979	-209.90739	297.40513	-421.96507	-257.79584	420.00802	-391.67487	-282.07458	308.40671	-383.81807	-278.65728	448.71486	-811.34420	-297.40725	329.27363	-825.78132	-157.42904	787.85451	-424.05736	-151.65646	676.64954	-431.95288	-204.93054	647.22446	-402.37836	-269.98447	776.81693	-411.88373	-255.76840	662.00541	-420.96332	-143.57923	759.43153	-784.94860	-131.99639	620.23923	-771.95027	-249.02138	749.82122	-813.62990	-239.80211	618.05146	-793.06045	-136.36955	982.18930	-476.38566	-340.96314	990.54021	-570.44069	-134.37261	985.93715	-737.72650	-337.66849	992.30860	-659.17538	-353.01841	1451.12144	-603.33548	-292.00816	1427.71660	-436.05807	-267.80435	1431.30419	-754.78243	-218.50447	1393.61748	-572.07325	-218.15621	1394.97040	-620.14791	-275.22330	1300.07656	-373.35388	-357.15871	1105.16186	-432.70778	-365.77353	1111.25512	-358.69493	-269.39663	1122.11325	-347.48969	-114.97917	1138.46047	-400.25662	-118.28008	1096.73009	-373.37387	-250.07783	1293.57689	-823.42209	-329.37937	1100.74628	-777.53528	-317.09720	1114.29799	-860.23597	-241.18316	1131.08484	-857.23948	-90.09899	1166.36005	-793.16007	-90.74922	1118.95321	-811.86819	-207.75335	885.88218	-509.83166	-202.21828	889.71029	-699.27450	-200.46450	894.82871	-517.61481	-194.06503	898.26255	-689.96858	
